<?xml version="1.0"?>
<svg xmlns:rdf="http://www.w3.org/1999/02/22-rdf-syntax-ns#" xmlns="http://www.w3.org/2000/svg" xmlns:cc="http://creativecommons.org/ns#" xmlns:xlink="http://www.w3.org/1999/xlink" xmlns:dc="http://purl.org/dc/elements/1.1/" xmlns:svg="http://www.w3.org/2000/svg" id="svg2" viewBox="0 0 250 300" version="1.1">
  <defs id="defs4">
    <linearGradient id="linearGradient4508">
      <stop id="stop4510" offset="0"/>
      <stop id="stop4512" stop-opacity="0" offset="1"/>
    </linearGradient>
    <linearGradient id="linearGradient3142">
      <stop id="stop3144" stop-color="#f2f2f2" offset="0"/>
      <stop id="stop3146" stop-color="#f9f9f9" offset="1"/>
    </linearGradient>
    <linearGradient id="linearGradient3027">
      <stop id="stop3029" stop-color="#b3b3b3" offset="0"/>
      <stop id="stop3035" stop-color="#f2f2f2" offset=".33333"/>
      <stop id="stop3037" stop-color="#c9c9c9" offset=".66667"/>
      <stop id="stop3031" stop-color="#4d4d4d" offset="1"/>
    </linearGradient>
    <linearGradient id="linearGradient3140" y2="34.78" gradientUnits="userSpaceOnUse" x2="34.5" y1="219.48" x1="34.5">
      <stop id="stop3136" stop-color="#a00" offset="0"/>
      <stop id="stop3138" stop-color="#ff2a2a" offset="1"/>
    </linearGradient>
    <linearGradient id="linearGradient3148" y2="47.839" xlink:href="#linearGradient3142" gradientUnits="userSpaceOnUse" x2="113" y1="198.1" x1="113"/>
    <linearGradient id="linearGradient3150" y2="88.797" xlink:href="#linearGradient3142" gradientUnits="userSpaceOnUse" x2="130.25" y1="195.64" x1="130.25"/>
    <linearGradient id="linearGradient3158" y2="105.65" gradientUnits="userSpaceOnUse" x2="116.5" y1="201.03" x1="116.5">
      <stop id="stop3154" offset="0"/>
      <stop id="stop3156" stop-color="#666" offset="1"/>
    </linearGradient>
    <linearGradient id="linearGradient4487" y2="213.56" xlink:href="#linearGradient3027" gradientUnits="userSpaceOnUse" x2="182.51" gradientTransform="translate(0 -2.1213)" y1="213.56" x1="177.49"/>
    <linearGradient id="linearGradient4492" y2="248.03" xlink:href="#linearGradient3027" gradientUnits="userSpaceOnUse" x2="73.893" gradientTransform="translate(-.00117 -2.1213)" y1="248.03" x1="68.855"/>
    <linearGradient id="linearGradient4500" y2="162.54" xlink:href="#linearGradient4508" gradientUnits="userSpaceOnUse" x2="73.5" gradientTransform="matrix(1.0053 0 -.37599 .18523 221.26 243.63)" y1="304.78" x1="73.42"/>
    <linearGradient id="linearGradient4514" y2="235.11" xlink:href="#linearGradient4508" gradientUnits="userSpaceOnUse" x2="124.25" gradientTransform="matrix(1 0 0 .53230 0 140.31)" y1="303.11" x1="70.5"/>
    <linearGradient id="linearGradient4516" y2="8.259" gradientUnits="userSpaceOnUse" x2="23" y1="248.36" x1="23">
      <stop id="stop3162" stop-color="#ccc" offset="0"/>
      <stop id="stop3164" stop-color="#f2f2f2" offset="1"/>
    </linearGradient>
  </defs>
  <g id="layer1" transform="translate(0 -752.36)">
    <g id="g4518" transform="translate(-2,735)">
      <path id="path4502" opacity=".21525" d="m121.09 266.43c-1.1814 0.0242-2.2152 0.13404-2.3994 0.2547l-0.55667 0.36468-48.722 31.918-0.55666 0.36468c-0.21049 0.13789 1.3643 0.69066 2.74 0.67055 2.2758-0.0333 2.1616-0.47052 2.3428-0.62065l0.5003-0.41458 48.722-31.918 0.55667-0.36468c0.21051-0.13789-0.73808-0.2547-2.1244-0.2547-0.17329 0-0.33425-0.004-0.50264 0z" fill="url(#linearGradient4514)" fill-rule="evenodd"/>
      <path id="path4498" opacity=".21525" d="m246.29 266.43c-1.1936 0.0242-2.2826 0.13404-2.5276 0.2547l-0.74024 0.36468-64.789 31.918-0.74024 0.36468c-0.2799 0.13789 1.0166 0.69066 2.4024 0.67055 2.2926-0.0333 2.3985-0.47052 2.6552-0.62065l0.70899-0.41458 64.789-31.918 0.74024-0.36468c0.27992-0.13789-0.60987-0.2547-1.9962-0.2547-0.17329 0-0.33237-0.004-0.50264 0z" fill="url(#linearGradient4500)" fill-rule="evenodd"/>
      <path id="rect3011" fill-rule="evenodd" fill="url(#linearGradient4487)" d="m179.5 120.44c-1.1384 0.13087-2 0.72361-2 1.375v176.78c0 0.74444 1.121 1.375 2.5 1.375s2.5-0.63056 2.5-1.375v-176.78c0-0.74444-1.121-1.375-2.5-1.375-0.17238 0-0.33737-0.0187-0.5 0z"/>
      <path id="path4472" d="m70.938 120.97c-1.1384 0.13087-2 0.72361-2 1.375v176.25c0 0.74444 1.121 1.375 2.5 1.375s2.5-0.63056 2.5-1.375v-176.25c0-0.74444-1.121-1.375-2.5-1.375-0.17238 0-0.33737-0.0187-0.5 0z" fill="url(#linearGradient4492)" fill-rule="evenodd"/>
      <rect id="rect2985" fill-rule="evenodd" height="174.29" width="217.14" y="29.505" x="17.143" fill="url(#linearGradient4516)"/>
      <path id="rect2987" d="m31.156 189.78h189.12v-146.28h-189.12v146.28z" fill="url(#linearGradient3140)" fill-rule="evenodd"/>
      <path id="path3066" fill="url(#linearGradient3148)" d="m166.6 120.98v6.8066c-0.00001 1.0938 0.12043 1.8392 0.36133 2.2363 0.21483 0.4297 0.64126 0.80405 1.2793 1.123 0.37108 0.15626 1.0514 0.28972 2.041 0.40039 0.45572-0.026 1.0026-0.0944 1.6406-0.20508 0.61196-0.0781 1.0384-0.14322 1.2793-0.19531l-2.1973 7.5195h-0.60547c-0.29298 0.026-0.63804 0.0391-1.0352 0.0391-2.5065 0-4.5606-0.49479-6.1621-1.4844-2.8255-1.6211-4.2383-4.1667-4.2383-7.6367v-8.6035h-4.043l1.9238-6.7188h2.3535v-4.6777l7.4023-3.0371v7.7148h4.8828v6.7188zm-23.486 17.529v-14.248c-0.00002-3.0078-0.9603-4.5117-2.8809-4.5117-1.8946 0.00001-2.8418 1.5039-2.8418 4.5117v13.682l-7.5586 0.64453v-24.482l7.041-0.83984v2.7148c-0.00001-0.0521 0.22786-0.31573 0.6836-0.79101 0.42316-0.45571 1.0612-0.89679 1.9141-1.3232 0.85285-0.42641 1.9596-0.67869 3.3203-0.75684 0.1367 0.00003 0.27017 0.00003 0.40039 0 2.0247 0.00003 3.7467 0.71943 5.166 2.1582 1.4909 1.543 2.2363 3.4473 2.2363 5.7129v16.885zm-16.963-17.764-15.4 9.6777c0.21484 0.26694 0.70963 0.58595 1.4844 0.95704 0.63801 0.32552 1.5592 0.48828 2.7637 0.48828h0.51758c0.85285-0.0846 1.7187-0.3125 2.5977-0.6836 0.85284-0.37108 1.5853-0.77147 2.1973-1.2012 0.61847-0.42317 0.92771-0.66405 0.92774-0.72266l3.8379 5.8789c-0.35159 0.26693-0.96683 0.66732-1.8457 1.2012-0.87893 0.53386-2.0508 1.0807-3.5156 1.6406-1.4974 0.55989-3.0697 0.85286-4.7168 0.8789h-0.16601c-2.3958 0-4.5964-0.54687-6.6016-1.6406-2.0768-1.0872-3.7158-2.6042-4.917-4.5508s-1.8148-4.1211-1.8408-6.5234v-0.16602c0-2.0768 0.48177-4.0495 1.4453-5.918 0.98307-1.8945 2.3535-3.4538 4.1113-4.6777 1.7643-1.2239 3.7402-1.9564 5.9277-2.1973 0.55988-0.0521 1.1068-0.0781 1.6406-0.0781 1.4648 0.00003 2.8516 0.23766 4.1602 0.71289 1.7318 0.69664 3.1185 1.5365 4.1602 2.5195 1.0351 1.0156 1.7936 1.9108 2.2754 2.6856 0.48175 0.77476 0.80076 1.3477 0.95704 1.7188zm-17.598 5.0781 8.7598-5.4785c-0.18882-0.1367-0.52085-0.29621-0.99609-0.47852-0.50783-0.18878-1.1361-0.28318-1.8848-0.2832-1.6537 0.00002-3.0404 0.62827-4.1602 1.8848-1.1458 1.276-1.7188 2.7279-1.7188 4.3555zm-20.684-1.875 8.916 12.197-8.5156 2.6367-9.8438-15.078v14.238l-8.5156 0.47851v-32.754h10c8.3984 0.00004 12.799 3.1315 13.203 9.3945 0.02602 0.26695 0.03904 0.52085 0.03906 0.76171-0.000025 3.4701-1.7611 6.1784-5.2832 8.125zm-9.4434-3.3594h1.8848c1.4648 0.00002 2.5846-0.45571 3.3594-1.3672 0.72264-0.8268 1.084-1.7741 1.084-2.8418-0.000017 0.00002-0.000017-0.0781 0-0.23438-0.11069-2.7994-1.6472-4.1992-4.6094-4.1992h-1.7188zm70.791-42.803v10.156l-7.959 0.76172v-24.521l7.4414-0.91797v4.043c0.61197-1.2044 1.5332-2.1517 2.7637-2.8418 1.1979-0.69659 2.4902-1.0449 3.877-1.0449 0.42316 0.000024 0.81053 0.01304 1.1621 0.03906 0.34503 0.05862 0.58266 0.10094 0.71289 0.12695l-2.4316 7.6367c-0.0586-0.02603-0.19208-0.06509-0.40039-0.11719-0.21486-0.02603-0.49481-0.03905-0.83985-0.03906-0.48178 0.000017-1.0287 0.07814-1.6406 0.23438-1.0938 0.31903-1.8164 0.90496-2.168 1.7578-0.34506 0.88543-0.54363 2.0475-0.5957 3.4863 0.0521 0.26694 0.0781 0.68035 0.0781 1.2402zm-26.221-15c-0.00002 0.000025 0.10415 0.000025 0.3125 0 2.5065 0.000025 4.7461 0.53388 6.7188 1.6016 2.0573 1.1198 3.6718 2.666 4.8438 4.6387 1.1458 1.9727 1.7187 4.1862 1.7188 6.6406v0.07813c-0.0261 2.2656-0.58597 4.3457-1.6797 6.2402-1.0938 1.8945-2.5879 3.4277-4.4824 4.5996-1.888 1.1719-3.9258 1.8392-6.1133 2.002-0.29299 0.02604-0.58596 0.03906-0.87891 0.03906-2.0573-0.000001-4.0332-0.46875-5.9277-1.4062-2.2136-1.0612-3.9714-2.5521-5.2734-4.4727-1.3346-1.9206-2.041-4.095-2.1191-6.5234v-0.47852c0-2.1354 0.53385-4.1634 1.6016-6.084 1.1458-2.0247 2.7311-3.6621 4.7559-4.9121 1.9987-1.2304 4.1732-1.8847 6.5234-1.9629zm0.3125 7.041c-1.0612 0.0521-2.0215 0.33205-2.8809 0.83984-0.85288 0.53387-1.5169 1.2533-1.9922 2.1582-0.50782 0.90496-0.76173 1.8522-0.76172 2.8418-0.00001 1.569 0.57291 2.9134 1.7188 4.0332 1.1458 1.1198 2.5065 1.6797 4.082 1.6797 1.6276-0.05208 3.0013-0.63801 4.1211-1.7578 1.0937-1.0937 1.6406-2.4381 1.6406-4.0332-0.00002-1.6536-0.57619-3.0404-1.7285-4.1602-1.1458-1.0677-2.5163-1.6015-4.1113-1.6016-0.0326 0.000018-0.0619 0.000018-0.0879 0zm-37.266 18.838v-32.998h18.037l2.041 7.1191h-11.719v6.875h8.6816v7.2852h-8.6816v10.918z"/>
      <path id="path3047" fill-rule="evenodd" fill="url(#linearGradient3150)" d="m35.752 184.98h179.93v-36.68h-179.93v36.68z"/>
      <path id="path3093" d="m204.56 157.98c2.0865 0.013 3.6214 0.80477 4.6046 2.3753 0.98321 1.5803 1.4894 3.7187 1.5186 6.4153-0.00001 0.00001-0.00001 0.0811 0 0.24338-0.00001 0.808-0.11358 1.6452-0.34072 2.5116-0.25312 0.97025-0.63927 1.8399-1.1584 2.609-0.51597 0.78528-1.1731 1.4172-1.9713 1.8959-0.79828 0.47864-1.7085 0.72444-2.7306 0.73742-1.3045 0-2.4208-0.37155-3.3488-1.1146-0.9313-0.74635-1.6233-1.7304-2.076-2.9521-0.45268-1.2217-0.692-2.5578-0.71795-4.0083 0.0259-0.0811 0.0389-0.16711 0.0389-0.25798 0.0422-2.4597 0.58085-4.4862 1.616-6.0794 1.0222-1.5835 2.5311-2.3753 4.5267-2.3753 0 0.00002 0.013 0.00002 0.0389 0zm-0.0779 3.6895c-0.82422 0.00001-1.3905 0.47865-1.6987 1.4359-0.29205 0.88913-0.43807 1.9194-0.43807 3.0908v0.27745c0 3.0568 0.71227 4.5981 2.1368 4.6241 0 0.00001 0.013 0.00001 0.0389 0 1.4343 0.00001 2.1514-1.5949 2.1514-4.7847-0.00001-1.2233-0.1655-2.3055-0.49648-3.2466-0.33424-0.93129-0.89887-1.397-1.6939-1.397zm-14.666 13.639-4.2882-1.4797c0.13304-0.0909 0.49161-0.3894 1.0757-0.89562 0.58409-0.50621 1.1292-1.0238 1.6355-1.5527 0.65224-0.63925 1.3028-1.384 1.9518-2.2342-0.31801 0.10709-0.7431 0.16063-1.2753 0.16063-1.4602-0.0552-2.6365-0.60031-3.5289-1.6355-0.9021-1.0254-1.3742-2.2682-1.4164-3.7285-0.00001-0.10707-0.00001-0.20766 0-0.30178-0.00001-1.1163 0.27257-2.093 0.81773-2.9302 0.60031-0.91506 1.3791-1.6054 2.3364-2.0711 0.95726-0.46564 1.9664-0.69846 3.0276-0.69848 1.8496 0.00002 3.365 0.58411 4.5462 1.7523 1.0903 1.0903 1.6354 2.5068 1.6355 4.2493-0.00001 0.13306-0.006 0.27259-0.0195 0.4186-0.0389 0.63603-0.15252 1.2672-0.34072 1.8934-0.18498 0.63927-0.4105 1.2177-0.67658 1.7352-0.2661 0.51758-0.58573 1.0749-0.95888 1.672-0.36994 0.60033-0.66199 1.053-0.87615 1.358-0.37318 0.59708-0.95727 1.3353-1.7523 2.2147-0.79827 0.88912-1.4294 1.5803-1.8934 2.0735zm0.33585-9.1946c0.60032-0.013 1.113-0.25148 1.5381-0.71552 0.4121-0.45104 0.61816-0.97672 0.61817-1.577-0.00001 0.00001-0.00001-0.013 0-0.0389-0.0292-0.38614-0.14279-0.73173-0.34073-1.0368-0.19795-0.30502-0.46403-0.55163-0.79826-0.73985-0.33099-0.17198-0.68307-0.25797-1.0562-0.25798-0.62304 0.026-1.1406 0.25961-1.5527 0.70091-0.41212 0.42511-0.61818 0.9297-0.61817 1.5138-0.00001 0.00001-0.00001 0.013 0 0.0389 0.013 0.58411 0.2385 1.0822 0.67658 1.4943 0.4121 0.41212 0.9102 0.61818 1.4943 0.61817 0 0.00001 0.013 0.00001 0.0389 0zm-14.082-1.9129c0.17197 0.00001 0.48349-0.159 0.93455-0.47701 0.43806-0.29204 0.6571-0.69117 0.65711-1.1974-0.00001 0.00002-0.00001-0.013 0-0.0389-0.013-0.45103-0.15902-0.79013-0.43808-1.0173-0.27907-0.22714-0.63764-0.34071-1.0757-0.34073-0.41212 0.00002-0.75122 0.12657-1.0173 0.37967-0.27907 0.2661-0.4251 0.60519-0.43807 1.0173-0.00001 0.00002-0.00001 0.013 0 0.0389-0.00001 0.30504 0.0925 0.57762 0.27744 0.81774 0.20118 0.25311 0.42022 0.4397 0.65711 0.55975 0.22714 0.13306 0.37479 0.21905 0.44294 0.25798zm0.0779 3.3878c-0.31802 0.10709-0.71715 0.31963-1.1974 0.63763-0.47701 0.33424-0.71552 0.81287-0.71551 1.4359-0.00001 0.60033 0.19956 1.0465 0.59869 1.3386 0.3829 0.30503 0.86803 0.45755 1.4554 0.45754 0.33098-0.013 0.64899-0.099 0.95402-0.25797 0.29204-0.159 0.53217-0.36506 0.72039-0.61817 0.15899-0.22714 0.23849-0.46727 0.2385-0.72038-0.00001 0-0.00001-0.0389 0-0.11682-0.0682-0.69117-0.3748-1.2234-0.91995-1.5965-0.55814-0.37316-0.93618-0.55975-1.1341-0.55975zm-3.5873-1.5917c-0.026-0.013-0.20606-0.18009-0.54029-0.50135-0.34396-0.30502-0.63601-0.73011-0.87614-1.2753-0.21417-0.43806-0.32125-0.94914-0.32125-1.5332 0-0.12005 0.006-0.24661 0.0195-0.37966 0.0811-0.98321 0.38128-1.8139 0.90048-2.4921 0.51919-0.67818 1.1893-1.1763 2.0103-1.4943 0.74634-0.27905 1.5381-0.41858 2.3753-0.4186 0.0779 0.00002 0.15737 0.00002 0.2385 0 1.4764 0.026 2.7063 0.41051 3.6895 1.1536 0.97024 0.74636 1.4943 1.8496 1.5722 3.3099-0.00001 0.0941-0.00001 0.18011 0 0.25797-0.00001 0.61331-0.11845 1.1585-0.35532 1.6355-0.29206 0.54516-0.61818 0.96376-0.97836 1.2558-0.3602 0.29206-0.55328 0.45268-0.57923 0.48188 0.42508 0.21093 0.93779 0.64251 1.5381 1.2947 0.52891 0.61006 0.79338 1.4067 0.79339 2.3899-0.00001 0.00001-0.00001 0.0941 0 0.28232-0.0389 1.5803-0.59708 2.7696-1.6744 3.5678-1.0741 0.79826-2.4224 1.2169-4.0449 1.2558h-0.2385c-1.6614 0-3.0178-0.39264-4.0692-1.1779-1.1163-0.82422-1.7004-1.9859-1.7523-3.4851v-0.0828c0-0.75607 0.159-1.4278 0.47701-2.0151 0.31801-0.59707 0.68307-1.0887 1.0952-1.4748 0.41211-0.36992 0.65223-0.55488 0.72038-0.55489zm-16.316-3.967 1.0562-3.8891h10.626l-5.1011 16.228-4.6095 0.65711 4.5267-12.996zm-8.5667 7.233v-2.9107h6.498v2.9107zm-7.749-11.881 4.2882 1.5771c-0.0941 0.026-0.49973 0.35858-1.2169 0.99783-0.73013 0.63602-1.2477 1.1066-1.5527 1.4116-0.60033 0.60033-1.2396 1.3256-1.9178 2.1758 0 0.00001 0.10059-0.013 0.30179-0.0389 0.19793-0.0292 0.34396-0.0503 0.43807-0.0633 0.0941-0.013 0.20118-0.0195 0.32125-0.0195 1.4602 0.00001 2.6755 0.5192 3.6457 1.5576 0.95726 1.0481 1.4683 2.3104 1.5332 3.7869-0.00001 0.0811-0.00001 0.16063 0 0.23851-0.00001 1.1422-0.27908 2.1401-0.8372 2.9935-0.59709 0.91508-1.3872 1.6063-2.3704 2.0735-0.99622 0.47701-1.9924 0.71551-2.9886 0.71551-1.8496 0-3.3586-0.59869-4.5267-1.7961-1.0903-1.1033-1.6355-2.5181-1.6355-4.2444 0-0.13304 0.006-0.27257 0.0195-0.4186 0.0389-0.69117 0.15251-1.3353 0.34072-1.9324 0.17199-0.58733 0.39102-1.1455 0.65711-1.6744 0.26609-0.53217 0.58409-1.0838 0.95402-1.6549 0.36019-0.57435 0.65386-1.04 0.88101-1.397 0.45105-0.75931 1.6728-2.1887 3.6652-4.2882zm-0.39914 9.2336c-0.61006 0.013-1.1211 0.245-1.5332 0.69604-0.37318 0.4251-0.55977 0.91022-0.55976 1.4554-0.00001 0.0519-0.00001 0.10547 0 0.16063 0.0422 0.57112 0.27582 1.0627 0.70091 1.4748 0.42509 0.41211 0.92968 0.61817 1.5138 0.61816 0.59707 0.00001 1.1146-0.23201 1.5527-0.69604 0.4121-0.42833 0.61816-0.92157 0.61817-1.4797-0.00001 0.00001-0.00001-0.0389 0-0.11682-0.013-0.61329-0.24501-1.1325-0.69605-1.5576-0.4251-0.36992-0.90373-0.55489-1.4359-0.55489h-0.16063zm-19.927 5.9188 2.789-2.9107c0.0422 0.0389 0.1298 0.12494 0.26285 0.25798 0.11681 0.14603 0.2823 0.29367 0.49648 0.44294 0.21416 0.14602 0.46727 0.27096 0.75932 0.37479 0.29204 0.12007 0.6571 0.18659 1.0952 0.19957 0.65223 0 1.2233-0.2385 1.7133-0.71552 0.4121-0.39913 0.61816-0.84531 0.61817-1.3386-0.00001-0.0909-0.006-0.18333-0.0195-0.27744-0.0811-0.51919-0.26123-0.9313-0.54029-1.2363-0.29205-0.29204-0.63764-0.50458-1.0368-0.63763-0.39589-0.13304-0.7934-0.19956-1.1925-0.19957-0.69119 0.00001-1.3564 0.1006-1.9957 0.30178-0.63926 0.21093-1.0384 0.37643-1.1974 0.49648v-9.0097h9.1946l-0.97836 3.6652h-4.3272v1.4748c0.0519-0.013 0.11195-0.0259 0.1801-0.0389 0.0519-0.013 0.11762-0.0259 0.19713-0.0389 0.0795-0.013 0.14683-0.0259 0.202-0.0389 0.0519 0.00001 0.13141 0.00001 0.23851 0 1.0514 0.00001 1.981 0.28556 2.789 0.85667 0.79825 0.57112 1.4164 1.3158 1.8545 2.2342 0.4121 0.90211 0.61815 1.8318 0.61816 2.789-0.00001 0.00001-0.00001 0.026 0 0.0779-0.0389 1.0644-0.33748 2.0151-0.89561 2.8523-0.57112 0.85018-1.3158 1.5154-2.2342 1.9957-0.91509 0.47701-1.8853 0.72849-2.9107 0.75445h-0.16062c-1.1942 0-2.3559-0.31151-3.4851-0.93455-1.1714-0.65224-1.8496-1.1179-2.0346-1.397zm-9.7057-14.515h5.4223v8.9512h2.3315l-0.57922 3.5484h-1.7134v3.8502l-4.0059 0.36019v-4.2103h-6.8582zm1.7133 9.1119v-5.3445l-2.2536 5.3445zm-15.571-1.0952c-0.000008 0.00001-0.000008 0.17199 0 0.51595-0.000008 2.3266-0.39752 4.5397-1.1925 6.6392-0.87939 2.2747-2.1563 4.2882-3.8307 6.0405l-2.233-2.01c0.94428-1.0124 1.7296-2.0833 2.3558-3.2125 0.62303-1.1163 1.0806-2.2991 1.3726-3.5484 0.29204-1.2493 0.45267-2.6317 0.48188-4.1471-0.000006-0.0909-0.000006-0.18333 0-0.27744-0.000006-1.0254-0.13954-2.0881-0.4186-3.1882-0.32126-1.1844-0.80719-2.3745-1.4578-3.5703-0.65062-1.1958-1.4416-2.2788-2.3729-3.249l2.093-2.0151c1.5835 1.5803 2.8393 3.4283 3.7674 5.544 0.91832 2.1255 1.4034 4.285 1.4554 6.4786zm-18.224-3.1882-2.9107-1.9567c0.06814-0.18495 0.26771-0.48349 0.5987-0.89561 0.33098-0.4121 0.68306-0.74471 1.0562-0.99783 1.1033-0.78527 2.4061-1.1779 3.9086-1.1779 0.97024 0.00002 1.9129 0.21257 2.828 0.63764 0.90534 0.44133 1.6306 1.053 2.1758 1.835 0.42508 0.63927 0.63762 1.3434 0.63764 2.1125-0.000013 0.2012-0.01299 0.40076-0.03894 0.59869-0.08114 0.58735-0.23365 1.0855-0.45754 1.4943-0.24014 0.42835-0.48027 0.75447-0.72038 0.97836-0.25312 0.22716-0.39265 0.34722-0.4186 0.36019 0.65223 0.31802 1.1909 0.86317 1.616 1.6355 0.42508 0.76906 0.63762 1.5397 0.63764 2.312-0.000014 0.54516-0.08601 1.0498-0.25798 1.5138-0.18822 0.46728-0.42186 0.88669-0.70091 1.2582-0.27908 0.37155-0.55815 0.67738-0.8372 0.91751-1.0092 0.87614-2.4581 1.3142-4.3466 1.3142-1.1682 0-2.2569-0.21903-3.2661-0.6571-1.0254-0.43807-1.9226-1.0968-2.6917-1.9762l2.7696-2.609c0.10708 0.14603 0.29367 0.3456 0.55976 0.5987 0.26608 0.24987 0.58409 0.46241 0.95402 0.63764 0.51919 0.23688 0.99782 0.36993 1.4359 0.39913 0.53217-0.0422 1.0108-0.21579 1.4359-0.52082 0.4121-0.30502 0.61816-0.71713 0.61817-1.2363-0.000009-0.38615-0.07951-0.72525-0.23851-1.0173-0.17199-0.29204-0.39752-0.48349-0.67658-0.57436-0.49324-0.13304-1.1585-0.19956-1.9957-0.19957-0.29205 0.00001-0.49162 0.00001-0.5987 0-0.10709 0.013-0.19308 0.026-0.25798 0.0389v-3.0324c0.06489 0.00001 0.17198 0.00001 0.32125 0 0.14602 0.013 0.31151 0.026 0.49648 0.0389 0.71713 0.00001 1.3353-0.10545 1.8545-0.31639 0.50621-0.20117 0.75932-0.61328 0.75932-1.2363-0.000008-0.5062-0.1801-0.91182-0.54029-1.2169-0.3602-0.30502-0.80638-0.45753-1.3386-0.45754-0.49 0.00001-0.96701 0.12656-1.431 0.37966-0.48026 0.2661-0.7934 0.6052-0.93942 1.0173zm-17.635 11.521 6.0405-7.2379c1.3142-1.7004 1.9713-2.9091 1.9713-3.6263-0.000009-0.0422-0.000009-0.0827 0-0.12168-0.07789-0.70415-0.30341-1.2282-0.67658-1.5722-0.34398-0.32124-0.76258-0.48187-1.2558-0.48188-0.000007 0.00001-0.03895 0.00001-0.11682 0-0.53218 0.013-0.97188 0.20607-1.3191 0.57923-0.34397 0.37318-0.52894 0.82585-0.55489 1.358-0.000005 0.00001-0.000005 0.026 0 0.0779-0.000005 0.73012 0.46403 1.3288 1.3921 1.7961l-2.3315 3.0665c-0.01298-0.013-0.17199-0.11843-0.47701-0.31638-0.30503-0.20118-0.59708-0.41373-0.87614-0.63764-1.0903-1.0254-1.6355-2.3347-1.6355-3.928-0.000001 0.00001-0.000001-0.10708 0-0.32126 0.03894-1.0092 0.3245-1.9259 0.85667-2.7501 0.51919-0.81123 1.2428-1.4359 2.1709-1.874 0.89236-0.42507 1.8756-0.63762 2.9497-0.63764 0.0292 0.00002 0.05678 0.00002 0.08275 0 1.0351 0.00002 1.9981 0.19959 2.8888 0.5987 0.89073 0.39915 1.6152 0.97675 2.1733 1.7328 0.54514 0.75933 0.8453 1.6696 0.90048 2.7306-0.000013 0.0811-0.000013 0.16064 0 0.2385-0.000013 0.82424-0.24014 1.749-0.72038 2.7744-0.53219 1.1422-1.1763 2.1255-1.9324 2.9497l-1.6744 1.8545h4.8431l-0.97836 3.7479zm-8.8442-9.6473-1.4748-2.536 8.1725-5.0232v17.168l-4.1665 0.36019v-11.268zm-5.3785-10.689 2.1125 2.0346c-1.4083 1.4765-2.4646 3.1314-3.1687 4.9648-0.72039 1.8464-1.0806 3.6198-1.0806 5.3201-0.000005 2.1806 0.33909 4.1552 1.0173 5.9237 0.67819 1.7815 1.7425 3.4429 3.1931 4.9843l-2.2536 2.0151c-1.1163-1.1714-2.0541-2.4613-2.8134-3.8696-0.76906-1.4083-1.3402-2.9107-1.7133-4.5073-0.33099-1.3953-0.49648-2.8036-0.49648-4.225-0.000002-0.19794-0.000002-0.39751 0-0.5987 0.05192-2.2196 0.55002-4.3921 1.4943-6.5175 0.94428-2.1287 2.1806-3.9702 3.709-5.5246z" fill="url(#linearGradient3158)"/>
    </g>
  </g>
  <metadata>
    <rdf:RDF>
      <cc:Work>
        <dc:format>image/svg+xml</dc:format>
        <dc:type rdf:resource="http://purl.org/dc/dcmitype/StillImage"/>
        <cc:license rdf:resource="http://creativecommons.org/licenses/publicdomain/"/>
        <dc:publisher>
          <cc:Agent rdf:about="http://openclipart.org/">
            <dc:title>Openclipart</dc:title>
          </cc:Agent>
        </dc:publisher>
        <dc:title>For Rent Sign</dc:title>
        <dc:date>2010-10-03T15:31:47</dc:date>
        <dc:description>For Rent Sign</dc:description>
        <dc:source>http://openclipart.org/detail/88231/for-rent-sign-by-jhnri4</dc:source>
        <dc:creator>
          <cc:Agent>
            <dc:title>jhnri4</dc:title>
          </cc:Agent>
        </dc:creator>
        <dc:subject>
          <rdf:Bag>
            <rdf:li>2d</rdf:li>
            <rdf:li>3d</rdf:li>
            <rdf:li>clip art</rdf:li>
            <rdf:li>clipart</rdf:li>
            <rdf:li>for rent</rdf:li>
            <rdf:li>for sale by owner</rdf:li>
            <rdf:li>phone number</rdf:li>
            <rdf:li>red</rdf:li>
            <rdf:li>sign</rdf:li>
          </rdf:Bag>
        </dc:subject>
      </cc:Work>
      <cc:License rdf:about="http://creativecommons.org/licenses/publicdomain/">
        <cc:permits rdf:resource="http://creativecommons.org/ns#Reproduction"/>
        <cc:permits rdf:resource="http://creativecommons.org/ns#Distribution"/>
        <cc:permits rdf:resource="http://creativecommons.org/ns#DerivativeWorks"/>
      </cc:License>
    </rdf:RDF>
  </metadata>
</svg>
